<?xml version="1.0" encoding="UTF-8" standalone="no"?>
<!-- Created with Inkscape (http://www.inkscape.org/) -->

<svg
   xmlns:dc="http://purl.org/dc/elements/1.1/"
   xmlns:cc="http://creativecommons.org/ns#"
   xmlns:rdf="http://www.w3.org/1999/02/22-rdf-syntax-ns#"
   xmlns:svg="http://www.w3.org/2000/svg"
   xmlns="http://www.w3.org/2000/svg"
   xmlns:sodipodi="http://sodipodi.sourceforge.net/DTD/sodipodi-0.dtd"
   xmlns:inkscape="http://www.inkscape.org/namespaces/inkscape"
   width="210mm"
   height="297mm"
   viewBox="0 0 210 297"
   version="1.1"
   id="svg16"
   inkscape:version="0.92.3 (2405546, 2018-03-11)"
   sodipodi:docname="icon.svg">
  <defs
     id="defs10" />
  <sodipodi:namedview
     id="base"
     pagecolor="#ffffff"
     bordercolor="#666666"
     borderopacity="1.0"
     inkscape:pageopacity="0.0"
     inkscape:pageshadow="2"
     inkscape:zoom="0.98994949"
     inkscape:cx="-16.282265"
     inkscape:cy="790.27115"
     inkscape:document-units="mm"
     inkscape:current-layer="layer1"
     showgrid="false"
     inkscape:window-width="1920"
     inkscape:window-height="1017"
     inkscape:window-x="-8"
     inkscape:window-y="-8"
     inkscape:window-maximized="1" />
  <metadata
     id="metadata13">
    <rdf:RDF>
      <cc:Work
         rdf:about="">
        <dc:format>image/svg+xml</dc:format>
        <dc:type
           rdf:resource="http://purl.org/dc/dcmitype/StillImage" />
        <dc:title />
      </cc:Work>
    </rdf:RDF>
  </metadata>
  <g
     inkscape:label="Layer 1"
     inkscape:groupmode="layer"
     id="layer1">
    <path
       style="fill:none;stroke:#000000;stroke-width:0.26458332px;stroke-linecap:butt;stroke-linejoin:miter;stroke-opacity:1"
       d="m 42.228584,43.628487 0.267269,63.342883 h 87.664407 l -1.06908,-63.610152 z"
       id="path18"
       inkscape:connector-curvature="0"
       inkscape:export-xdpi="73.720001"
       inkscape:export-ydpi="73.720001" />
    <path
       style="fill:none;stroke:#000000;stroke-width:0.26458332px;stroke-linecap:butt;stroke-linejoin:miter;stroke-opacity:1"
       d="m 83.922631,95.478776 c 18.441599,-9.087165 25.390609,-7.750818 26.726949,-7.483549 1.33635,0.267272 5.61266,4.276315 6.41447,-2.672694 0.80181,-6.949008 -3.20723,-0.801809 -1.33635,-11.225321 1.87089,-10.423511 7.75082,-15.501633 -3.4745,-14.967092 -11.22532,0.534537 -10.95805,-1.870887 -13.898014,8.018086 -2.939965,9.888972 0,8.552625 -9.621703,12.027128 -9.621705,3.474503 2.939963,3.207234 -3.741774,9.354433 -6.681737,6.1472 -1.069078,6.949009 -1.069078,6.949009 z"
       id="path24"
       inkscape:connector-curvature="0"
       inkscape:export-xdpi="73.720001"
       inkscape:export-ydpi="73.720001" />
    <path
       style="fill:none;stroke:#000000;stroke-width:0.26458332px;stroke-linecap:butt;stroke-linejoin:miter;stroke-opacity:1"
       d="m 68.688267,96.547854 c 5.87993,-10.423512 8.018086,-10.958052 8.285355,-12.294399 0.267272,-1.336347 4.810853,-6.681737 8.552625,-14.165286 3.741774,-7.483546 8.018086,-4.543581 4.276314,-9.087162 -3.741774,-4.543584 -12.828939,-6.414468 -15.234364,-6.414468 -2.405425,0 -4.009043,-0.534541 -5.612659,5.612659 -1.603618,6.147199 6.414468,6.147199 5.078122,10.156243 -1.33635,4.00904 0.534537,-1.870888 -1.33635,5.34539 -1.870887,7.216277 -2.672694,9.621702 -7.750815,9.087162 -5.078122,-0.534538 -9.087165,-1.336347 -8.552625,-3.207234 0.534538,-1.870885 -7.750817,-8.285356 -8.285355,-5.34539 -0.53454,2.939965 -0.801809,-5.078122 -0.53454,4.009043 0.267271,9.087165 1.069078,12.828936 2.138156,13.630746 1.069078,0.801809 18.976136,2.672696 18.976136,2.672696 z"
       id="path26"
       inkscape:connector-curvature="0"
       inkscape:export-xdpi="73.720001"
       inkscape:export-ydpi="73.720001" />
    <path
       style="stroke-width:1.01015258;fill:#00d9ff;fill-opacity:1"
       d="m 161.50385,360.84914 c -4e-4,-23.19562 -0.30182,-76.53476 -0.66981,-118.53141 l -0.66909,-76.35755 163.04055,-0.59369 c 89.67232,-0.32653 163.18841,-0.44584 163.36911,-0.26514 0.30282,0.30282 4.16836,210.71348 4.21786,229.5879 l 0.0219,8.33376 H 326.15945 161.50459 Z m 103.09153,-2.52538 c 6.53786,-11.0679 15.20208,-23.69821 21.53884,-31.39832 3.12403,-3.79617 5.68005,-7.39557 5.68005,-7.99866 0,-0.60309 4.9448,-8.63406 10.98846,-17.8466 6.04365,-9.21255 14.2283,-22.61974 18.18812,-29.79378 8.8139,-15.96821 10.89238,-18.74211 18.42865,-24.59456 4.6816,-3.63559 5.93285,-5.19308 5.93285,-7.38492 0,-3.40251 -6.44665,-11.83902 -12.41761,-16.25051 -14.01681,-10.35595 -45.15571,-19.73776 -58.19769,-17.53433 -6.91331,1.16799 -11.73863,8.11866 -14.79992,21.31866 -2.438,10.51248 -0.0228,16.08012 10.86475,25.04631 8.96312,7.38136 9.53092,8.54597 7.59043,15.56866 -0.87579,3.16949 -2.81971,10.76296 -4.31982,16.87438 -7.29611,29.72428 -11.2855,35.352 -24.91155,35.14203 -12.69187,-0.19557 -29.52812,-3.80101 -33.36065,-7.1441 -0.97228,-0.84811 -1.76777,-2.76706 -1.76777,-4.26435 0,-8.82236 -23.94906,-26.61639 -30.80965,-22.89142 -1.11117,0.60332 -2.66178,0.96482 -3.4458,0.80334 -1.2061,-0.24842 -1.32404,2.71184 -0.76627,19.23349 1.05088,31.12791 3.69503,46.93829 8.36137,49.9958 2.65145,1.7373 18.54287,4.42384 46.35832,7.83714 28.56466,3.50525 25.75336,3.93501 30.86489,-4.71826 z m 67.16932,-3.18024 c 26.02705,-11.87004 49.91128,-19.50158 68.12802,-21.76839 10.41831,-1.29641 17.14905,-0.5468 23.46034,2.61281 4.63757,2.3217 10.05184,3.03221 13.37851,1.75565 3.41023,-1.30863 5.94755,-8.50204 6.4008,-18.1465 0.42876,-9.12371 0.41189,-9.20193 -2.76656,-12.82197 -1.75886,-2.00325 -3.45655,-5.23583 -3.77261,-7.18353 -1.1639,-7.17229 3.67966,-30.85808 10.22085,-49.98159 5.108,-14.9335 4.48687,-21.67961 -2.30741,-25.06058 -3.33554,-1.65983 -6.19992,-1.80941 -29.45376,-1.53816 -34.66544,0.40437 -34.47555,0.30596 -41.41348,21.46205 -1.72291,5.25371 -4.70217,16.04728 -6.62058,23.9857 -1.91841,7.93842 -4.17659,15.48438 -5.01818,16.7688 -2.06436,3.15063 -8.75343,6.55669 -22.99264,11.70781 -19.39729,7.0171 -21.71934,9.59901 -15.41705,17.14235 6.49656,7.77589 5.92361,10.25477 -5.00577,21.65753 -7.16536,7.4757 -10.60847,13.09792 -10.60847,17.32243 0,3.07405 4.97016,8.54883 7.76089,8.54883 1.02045,0 8.23265,-2.90846 16.0271,-6.46324 z"
       id="path28"
       inkscape:connector-curvature="0"
       transform="scale(0.26458333)"
       inkscape:export-xdpi="73.720001"
       inkscape:export-ydpi="73.720001" />
    <path
       style="fill:#00a3ff;fill-opacity:1;stroke:#000000;stroke-width:0.26458332px;stroke-linecap:butt;stroke-linejoin:miter;stroke-opacity:1"
       d="m 104.36703,76.451788 c 0,0 15.7689,-22.71791 16.03617,-39.02135 0.26727,-16.30344 -11.49259,-18.17433 -17.10525,-18.17433 -5.612663,0 -14.566013,1.8621 -14.699843,17.10525 -0.14553,16.57561 15.768923,40.09043 15.768923,40.09043 z"
       id="path20"
       inkscape:connector-curvature="0"
       sodipodi:nodetypes="csssc"
       inkscape:export-xdpi="73.720001"
       inkscape:export-ydpi="73.720001" />
    <path
       style="fill:#00a3ff;fill-opacity:1;stroke-width:0.26726952"
       d="m 103.59947,74.732558 c -1.44068,-2.10654 -4.643173,-7.78076 -6.628843,-11.74508 -6.5976,-13.17186 -9.01493,-22.7934 -7.76796,-30.91823 1.18648,-7.73067 5.31379,-11.8492 12.529753,-12.50309 2.18063,-0.19761 5.99215,0.21906 7.91433,0.86518 5.11514,1.71939 8.42617,5.22425 9.80602,10.38007 0.5916,2.21054 0.79511,7.31337 0.40111,10.05773 -0.62989,4.38745 -2.10357,9.35176 -4.35328,14.6647 -2.29277,5.41465 -7.00229,14.22637 -9.97527,18.66418 l -1.13388,1.69257 z"
       id="path22"
       inkscape:connector-curvature="0"
       inkscape:export-xdpi="73.720001"
       inkscape:export-ydpi="73.720001" />
  </g>
</svg>
